<svg xmlns="http://www.w3.org/2000/svg" width="36" height="36" viewBox="0 0 36 36">
  <path id="github" d="M18,0A18,18,0,1,0,36,18,18,18,0,0,0,18,0Zm0,1.96A16.04,16.04,0,1,1,1.96,18,16.04,16.04,0,0,1,18,1.96Zm-7.961,4.7a6.462,6.462,0,0,0-.207,4.028,6.014,6.014,0,0,0-1.151,1.89c-.731,2.311-.553,5.263,1.048,7.049a6.3,6.3,0,0,0,2.285,1.521,12.1,12.1,0,0,0,3.7.76c-1.013.473-1.726.762-1.975,1.808a2.888,2.888,0,0,1-3.5-.246C9.456,22.894,9.1,21.873,8.228,21.5a1.05,1.05,0,0,0-.514-.123.747.747,0,0,0-.679.246c-.082.082-.076.17.02.266a6.482,6.482,0,0,1,1.668,1.789A5.21,5.21,0,0,0,9.833,25.3a4.259,4.259,0,0,0,3.744.637c-.146.88.248,2.254-.042,3.041a1.736,1.736,0,0,1-.472.576c-.183.179-.752.4-.637.677.055.123.247.2.576.226a2.389,2.389,0,0,0,1.872-.883,1.321,1.321,0,0,0,.226-.8V25.4a1.136,1.136,0,0,1,.246-.822,1.253,1.253,0,0,1,.536-.33v4.438a4.143,4.143,0,0,1-.1.987,3.19,3.19,0,0,1-.185.576c-.126.211-.367.406-.371.657,0,.082.049.129.145.143A2.28,2.28,0,0,0,17.218,30a3.6,3.6,0,0,0,.349-1.56V24.082h.905v4.357A3.435,3.435,0,0,0,18.843,30a1.762,1.762,0,0,0,1.235.947,1.928,1.928,0,0,0,.615.1c.11-.014.159-.061.145-.143a1.957,1.957,0,0,0-.349-.657,2.815,2.815,0,0,1-.288-1.562V24.247a1.385,1.385,0,0,1,.556.33,1.077,1.077,0,0,1,.266.822v3.368a1.321,1.321,0,0,0,.226.8,2.362,2.362,0,0,0,1.872.883c.329-.027.521-.1.576-.226s.014-.225-.123-.308a5.148,5.148,0,0,1-.514-.369,1.7,1.7,0,0,1-.472-.576c-.123-1.413,0-2.928-.1-4.357a2.947,2.947,0,0,0-2-2.67,10.712,10.712,0,0,0,3.518-.782c2.747-1.335,3.506-3.4,3.518-6.163A6.407,6.407,0,0,0,25.8,10.479a5.528,5.528,0,0,0,.145-1.971,6.774,6.774,0,0,0-.433-1.85,6.247,6.247,0,0,0-2.551.615,9.2,9.2,0,0,0-1.481.9,15.422,15.422,0,0,0-7.363.081,7.2,7.2,0,0,0-4.074-1.6Z"/>
</svg>
