<svg xmlns="http://www.w3.org/2000/svg" width="36" height="36" viewBox="0 0 36 36">
  <path id="linkedin" d="M0,0V36H36V0ZM8.829,7.077a2.818,2.818,0,0,1,2.892,2.7,2.8,2.8,0,0,1-2.929,2.7h-.04A2.812,2.812,0,0,1,5.9,9.78a2.836,2.836,0,0,1,2.931-2.7Zm15.3,7.155a5.77,5.77,0,0,1,4.263,1.714A8.075,8.075,0,0,1,30.1,21.272v8.982H24.926V21.883c-.012-1.569-.549-3.476-2.626-3.54a2.954,2.954,0,0,0-2.663,1.9,3.393,3.393,0,0,0-.191,1.255v8.754H14.271c.02-4.376.047-8.752.037-13.129q0-1.865-.037-2.511h5.175v2.206a6.976,6.976,0,0,1,1.58-1.694,5.357,5.357,0,0,1,3.1-.894ZM6.2,14.614h5.175v15.64H6.2V14.614Z"/>
</svg>
